<svg width="32" height="24" viewBox="0 0 32 24" xmlns="http://www.w3.org/2000/svg" fill="none">
  <rect width="32" height="24" fill="none"></rect>
  <path d="M2 3.5C2 2.67 2.67 2 3.5 2H28.5C29.33 2 30 2.67 30 3.5C30 4.33 29.33 5 28.5 5H3.5C2.67 5 2 4.33 2 3.5Z" fill="white"></path>
  <path d="M2 12C2 11.17 2.67 10.5 3.5 10.5H28.5C29.33 10.5 30 11.17 30 12C30 12.83 29.33 13.5 28.5 13.5H3.5C2.67 13.5 2 12.83 2 12Z" fill="white"></path>
  <path d="M2 20.5C2 19.67 2.67 19 3.5 19H28.5C29.33 19 30 19.67 30 20.5C30 21.33 29.33 22 28.5 22H3.5C2.67 22 2 21.33 2 20.5Z" fill="white"></path>
</svg>