<svg width="20.674194" height="21.199951" viewBox="0 0 20.6742 21.2" fill="none" xmlns="http://www.w3.org/2000/svg" xmlns:xlink="http://www.w3.org/1999/xlink">
	<desc>
			Created with Pixso.
	</desc>
	<defs/>
	<path id="Icon" d="M2.79 9.4C3.79 9.4 4.6 10.2 4.6 11.2L4.6 18.4C4.6 19.39 3.79 20.2 2.79 20.2C1.8 20.2 1 19.39 1 18.4L1 11.2C1 10.2 1.8 9.4 2.79 9.4ZM5.79 17.51C5.79 18.42 6.31 19.25 7.12 19.66L7.18 19.69C7.85 20.02 8.58 20.2 9.33 20.2L15.83 20.2C16.97 20.2 17.96 19.39 18.18 18.27L19.62 11.07C19.92 9.58 18.78 8.19 17.27 8.19L13 8.19L13 3.4C13 2.07 11.92 1 10.6 1C9.93 1 9.39 1.53 9.39 2.19L9.39 3C9.39 4.03 9.06 5.04 8.43 5.88L6.76 8.12C6.13 8.95 5.79 9.96 5.79 11L5.79 17.51Z" stroke="#FFFFFF" stroke-opacity="1.000000" stroke-width="2.000000"/>
</svg>
