<svg width="15.001648" height="14.878662" viewBox="0 0 15.0016 14.8787" fill="none" xmlns="http://www.w3.org/2000/svg" xmlns:xlink="http://www.w3.org/1999/xlink">
	<desc>
			Created with Pixso.
	</desc>
	<defs/>
	<path id="Vector" d="M8.79 1.07L10.11 3.71C10.29 4.08 10.77 4.43 11.18 4.5L13.57 4.89C15.1 5.15 15.46 6.26 14.36 7.35L12.5 9.21C12.18 9.53 12.01 10.14 12.11 10.57L12.64 12.87C13.06 14.7 12.09 15.4 10.48 14.45L8.24 13.12C7.83 12.88 7.16 12.88 6.75 13.12L4.51 14.45C2.9 15.4 1.93 14.69 2.35 12.87L2.88 10.57C2.98 10.14 2.81 9.53 2.49 9.21L0.63 7.35C-0.46 6.26 -0.11 5.15 1.42 4.89L3.81 4.5C4.21 4.43 4.69 4.08 4.87 3.71L6.19 1.07C6.91 -0.36 8.08 -0.36 8.79 1.07Z" fill="#FFCD1A" fill-opacity="1.000000" fill-rule="nonzero"/>
</svg>
